<?xml version="1.0" standalone="no"?>
<!DOCTYPE svg PUBLIC "-//W3C//DTD SVG 20010904//EN"
 "http://www.w3.org/TR/2001/REC-SVG-20010904/DTD/svg10.dtd">
<svg version="1.0" xmlns="http://www.w3.org/2000/svg"
 width="834.000000pt" height="632.000000pt" viewBox="0 0 834.000000 632.000000"
 preserveAspectRatio="xMidYMid meet">

<g transform="translate(0.000000,632.000000) scale(0.100000,-0.100000)"
fill="#000000" stroke="none">
<path d="M2415 6090 c-77 -79 -190 -122 -485 -185 -269 -57 -360 -95 -444
-185 -78 -85 -92 -133 -89 -312 1 -76 -2 -138 -6 -138 -5 0 -40 14 -77 32
-146 68 -253 26 -321 -127 -13 -30 -17 -65 -17 -145 1 -93 4 -115 32 -188 18
-46 32 -86 32 -90 0 -4 -20 -6 -45 -4 -25 2 -82 -1 -127 -7 -218 -29 -426
-213 -468 -414 -7 -36 -10 -395 -8 -1172 l3 -1120 36 -76 c38 -80 139 -197
198 -232 30 -17 31 -17 31 0 0 9 -21 39 -47 65 -26 26 -44 50 -41 53 3 3 333
76 733 162 l727 156 712 -152 c391 -84 724 -157 740 -163 l28 -11 -41 -35
c-37 -30 -41 -38 -41 -78 0 -24 3 -44 8 -44 29 0 1855 -230 1859 -234 3 -3 -6
-19 -21 -36 -24 -29 -26 -38 -26 -131 l0 -99 857 2 858 3 9 40 c5 22 9 83 9
135 0 82 -4 106 -31 178 -18 46 -32 85 -32 88 0 2 37 4 83 4 152 0 276 50 383
155 78 76 139 171 165 255 19 63 19 93 17 1190 l-3 1125 -31 66 c-38 80 -143
195 -223 243 -94 57 -171 78 -289 79 -90 0 -102 2 -96 16 50 122 66 188 66
279 0 88 -3 100 -34 160 -74 145 -166 168 -341 88 l-58 -26 8 72 c18 163 -5
290 -66 367 -45 57 -140 117 -230 145 -42 13 -160 43 -261 65 -102 23 -220 53
-262 67 -86 28 -188 90 -214 128 l-16 26 -1532 0 -1532 0 -39 -40z m2054
-2090 c230 -569 440 -1083 468 -1141 113 -237 188 -308 346 -324 l67 -7 0 -64
0 -64 -560 0 -560 0 0 65 c0 45 4 65 13 65 65 2 200 21 230 33 48 20 77 69 77
128 0 69 -31 171 -128 424 l-88 230 -461 3 -461 2 -70 -177 c-114 -289 -153
-437 -138 -519 15 -78 97 -124 221 -124 l45 0 0 -65 0 -65 -420 0 -420 0 0 63
0 64 68 12 c139 25 217 82 278 203 26 51 762 1882 915 2276 8 21 14 23 85 20
l76 -3 417 -1035z"/>
<path d="M3686 4038 c-108 -272 -196 -497 -196 -501 0 -4 173 -7 385 -7 212 0
385 2 385 5 0 7 -370 988 -374 993 -2 2 -92 -219 -200 -490z"/>
<path d="M860 1715 l0 -35 1160 0 1160 0 0 35 0 35 -1160 0 -1160 0 0 -35z"/>
<path d="M1031 1589 c-6 -18 -11 -34 -11 -35 0 -2 486 -4 1080 -4 l1080 0 0
35 0 35 -1069 0 -1069 0 -11 -31z"/>
<path d="M1250 1235 c0 -102 3 -185 8 -185 4 0 39 14 79 32 l72 33 1 153 0
152 -80 0 -80 0 0 -185z"/>
<path d="M1490 1036 l0 -384 35 -31 c31 -27 105 -71 120 -71 3 0 5 196 5 435
l0 435 -80 0 -80 0 0 -384z"/>
<path d="M1730 970 l0 -449 53 -15 c28 -8 64 -17 80 -20 l27 -6 0 470 0 470
-80 0 -80 0 0 -450z"/>
<path d="M1970 942 l0 -479 58 -12 c31 -7 67 -15 80 -18 l22 -5 0 496 0 496
-80 0 -80 0 0 -478z"/>
<path d="M2210 910 c0 -323 4 -510 10 -510 7 0 89 -35 133 -58 4 -2 7 240 7
537 l0 541 -75 0 -75 0 0 -510z"/>
<path d="M2450 830 l0 -590 75 0 75 0 0 590 0 590 -75 0 -75 0 0 -590z"/>
<path d="M2690 830 l0 -590 75 0 75 0 0 590 0 590 -75 0 -75 0 0 -590z"/>
<path d="M3440 1385 l0 -25 890 0 890 0 0 25 0 25 -890 0 -890 0 0 -25z"/>
<path d="M3440 1305 c0 -13 106 -15 890 -15 784 0 890 2 890 15 0 13 -106 15
-890 15 -784 0 -890 -2 -890 -15z"/>
<path d="M3850 700 l0 -460 65 0 65 0 0 460 0 460 -65 0 -65 0 0 -460z"/>
<path d="M4032 703 l3 -458 68 -3 67 -3 0 461 0 460 -70 0 -70 0 2 -457z"/>
<path d="M4220 700 l0 -460 65 0 65 0 0 460 0 460 -65 0 -65 0 0 -460z"/>
<path d="M4400 700 l0 -461 68 3 67 3 3 458 2 457 -70 0 -70 0 0 -460z"/>
<path d="M4590 700 l0 -460 65 0 65 0 0 460 0 460 -65 0 -65 0 0 -460z"/>
<path d="M1395 984 c-5 -50 -3 -103 3 -127 8 -36 10 -23 11 86 0 70 -1 127 -3
127 -2 0 -7 -39 -11 -86z"/>
<path d="M5603 703 c169 -2 445 -2 615 0 169 1 30 2 -308 2 -338 0 -477 -1
-307 -2z"/>
<path d="M5300 670 c0 -7 205 -10 595 -10 390 0 595 3 595 10 0 7 -205 10
-595 10 -390 0 -595 -3 -595 -10z"/>
<path d="M5350 420 l0 -190 74 0 c69 0 76 2 95 26 19 25 21 40 21 190 l0 164
-95 0 -95 0 0 -190z"/>
<path d="M5590 470 l0 -140 58 29 c31 16 74 34 95 41 l37 12 0 99 0 99 -95 0
-95 0 0 -140z"/>
<path d="M5830 520 c0 -66 3 -90 13 -89 6 0 48 8 92 18 l80 17 3 72 3 72 -96
0 -95 0 0 -90z"/>
<path d="M6070 544 l0 -66 30 7 c17 4 58 14 93 23 l62 17 3 43 3 42 -95 0 -96
0 0 -66z"/>
<path d="M6310 579 c0 -27 3 -30 23 -24 24 8 87 44 87 51 0 2 -25 4 -55 4 -55
0 -55 0 -55 -31z"/>
</g>
</svg>
