<?xml version="1.0" standalone="no"?>
<!DOCTYPE svg PUBLIC "-//W3C//DTD SVG 20010904//EN"
 "http://www.w3.org/TR/2001/REC-SVG-20010904/DTD/svg10.dtd">
<svg version="1.0" xmlns="http://www.w3.org/2000/svg"
 width="578.000000pt" height="432.000000pt" viewBox="0 0 578.000000 432.000000"
 preserveAspectRatio="xMidYMid meet">
<metadata>
Created by potrace 1.16, written by Peter Selinger 2001-2019
</metadata>
<g transform="translate(0.000000,432.000000) scale(0.100000,-0.100000)"
fill="#000000" stroke="none">
<path d="M1805 4167 c-46 -46 -117 -74 -286 -112 -220 -50 -270 -69 -329 -122
-65 -58 -85 -120 -77 -240 3 -48 1 -83 -5 -83 -5 0 -27 9 -50 21 -44 22 -114
27 -147 10 -27 -15 -66 -68 -80 -110 -21 -64 -9 -162 33 -262 6 -14 -4 -17
-77 -21 -112 -6 -193 -44 -268 -126 -102 -111 -94 -32 -94 -947 l0 -800 27
-50 c29 -56 90 -130 119 -145 14 -8 17 -7 14 3 -4 10 90 33 384 96 l389 83
383 -82 c211 -45 388 -84 392 -87 5 -3 -1 -15 -13 -28 -12 -13 -20 -31 -18
-42 3 -16 53 -24 495 -78 271 -34 496 -64 499 -68 4 -4 2 -13 -4 -19 -7 -7
-12 -36 -12 -65 l0 -53 460 0 c453 0 460 0 460 20 0 18 7 20 54 20 51 0 56 -2
70 -32 12 -22 16 -60 16 -134 0 -99 -1 -104 -22 -108 -27 -6 -179 -36 -182
-36 0 0 1 -96 4 -212 l5 -213 5 209 5 210 85 16 c47 8 91 20 99 24 11 7 13 37
9 157 -4 89 -2 149 4 149 5 0 72 7 149 15 125 14 152 14 272 0 72 -8 138 -15
145 -15 9 0 13 -27 14 -97 1 -74 3 -83 5 -35 2 34 8 62 13 62 6 0 10 9 10 20
0 18 7 20 71 20 l70 0 -3 310 c-2 243 0 310 10 310 6 0 12 4 12 9 0 5 -6 11
-12 14 -7 3 60 6 150 8 137 3 161 2 157 -10 -3 -8 -1 -18 6 -21 7 -5 11 -54
10 -151 l-1 -144 36 40 c20 22 48 63 62 90 l27 50 3 794 2 793 -23 52 c-60
128 -187 213 -336 223 -44 3 -81 7 -81 8 0 1 9 27 19 58 28 81 34 135 21 192
-28 126 -125 179 -230 125 -22 -11 -43 -20 -49 -20 -5 0 -8 44 -7 103 1 88 -2
108 -22 149 -42 84 -119 130 -282 168 -225 53 -255 61 -310 86 -32 14 -71 39
-86 55 l-28 29 -1055 -1 -1056 -2 -30 -30z m365 -1602 c0 -168 3 -305 7 -305
13 0 203 194 203 206 0 15 -23 24 -61 24 -22 0 -29 5 -29 20 0 19 7 20 149 20
134 0 149 -2 147 -17 -2 -11 -18 -21 -45 -27 -31 -8 -71 -35 -146 -101 -57
-49 -104 -92 -104 -95 -1 -3 58 -71 129 -152 107 -121 137 -149 170 -159 28
-9 40 -18 40 -31 0 -17 -11 -18 -150 -18 -143 0 -150 1 -150 20 0 14 7 20 23
20 48 0 50 14 10 67 -75 99 -138 172 -149 172 -6 1 -19 -8 -29 -19 -15 -17
-17 -31 -11 -97 7 -86 21 -109 72 -119 25 -4 34 -12 34 -25 0 -19 -8 -19 -162
-17 -135 3 -163 5 -163 18 0 8 16 19 39 25 68 19 66 9 66 414 0 201 -4 372 -9
380 -5 8 -29 17 -53 20 -34 5 -43 10 -43 26 0 17 12 22 85 36 47 9 95 17 108
18 l22 1 0 -305z m700 95 c0 -115 2 -210 5 -210 3 0 25 16 50 35 117 89 298
74 350 -30 17 -35 21 -66 25 -241 5 -217 8 -228 61 -239 20 -5 29 -13 29 -26
0 -18 -9 -19 -150 -19 -140 0 -150 1 -150 19 0 13 10 21 34 25 58 11 61 21 61
210 0 196 -14 254 -65 281 -76 39 -181 -1 -226 -87 -17 -32 -20 -348 -4 -377
5 -10 25 -22 45 -25 26 -5 35 -12 35 -27 0 -19 -6 -19 -152 -17 -132 3 -153 5
-156 19 -2 12 7 18 32 23 66 13 66 11 66 406 0 400 -1 403 -63 408 -33 3 -38
6 -35 25 3 18 15 24 83 38 44 9 90 17 103 18 l22 1 0 -210z m-1755 -192 c184
-460 200 -488 265 -488 25 0 30 -4 30 -25 l0 -25 -185 0 -185 0 0 25 c0 21 5
25 31 25 79 0 87 38 35 175 l-34 90 -154 0 -153 0 -32 -85 c-34 -90 -41 -151
-20 -168 6 -6 26 -12 42 -14 22 -2 30 -8 30 -23 0 -19 -8 -20 -137 -23 l-138
-3 0 24 c0 20 7 26 32 31 18 3 42 16 55 28 14 13 75 153 164 377 78 196 147
371 155 389 9 24 19 32 37 32 23 0 34 -24 162 -342z m798 54 c27 -24 19 -73
-15 -91 -24 -14 -32 -14 -83 3 l-55 19 -26 -24 c-34 -32 -59 -82 -73 -147 -14
-65 -15 -257 -1 -281 5 -10 25 -22 45 -25 26 -5 35 -12 35 -26 0 -19 -8 -20
-150 -20 -141 0 -150 1 -150 19 0 13 9 21 30 26 59 13 60 18 60 236 0 186 -1
200 -20 219 -11 11 -33 20 -50 20 -23 0 -30 4 -30 20 0 12 8 21 23 25 203 45
187 46 188 -7 1 -24 4 -54 8 -68 l7 -25 17 31 c9 18 35 48 58 67 63 55 138 67
182 29z m1936 0 c72 -35 75 -49 81 -285 3 -117 9 -218 13 -224 16 -26 43 -32
70 -18 22 11 26 11 31 -2 13 -33 -53 -73 -119 -73 -49 0 -95 45 -95 92 l0 33
-32 -39 c-110 -134 -328 -100 -328 51 0 81 58 134 228 208 59 26 111 50 116
55 5 5 5 34 1 65 -8 68 -36 103 -87 112 -64 10 -86 -2 -112 -61 -25 -56 -45
-71 -80 -60 -46 14 -50 77 -8 116 59 56 235 72 321 30z m792 -3 c21 -10 46
-32 56 -47 9 -15 18 -29 20 -31 1 -2 19 11 40 29 55 48 117 72 187 73 104 1
168 -35 196 -108 6 -16 14 -118 17 -225 3 -107 9 -202 14 -211 5 -9 24 -20 44
-23 26 -5 35 -12 35 -26 0 -19 -8 -20 -150 -20 -141 0 -150 1 -150 19 0 13 9
21 30 26 54 12 60 32 60 210 0 179 -9 225 -50 267 -58 58 -175 27 -231 -59
l-29 -47 0 -161 c0 -178 6 -198 60 -210 21 -5 30 -13 30 -26 0 -18 -9 -19
-150 -19 -142 0 -150 1 -150 20 0 14 9 21 35 26 20 3 40 15 46 26 29 54 18
362 -15 425 -45 88 -210 60 -262 -43 -16 -34 -19 -61 -19 -205 0 -183 3 -193
60 -203 26 -5 35 -12 35 -26 0 -19 -8 -20 -155 -20 -146 0 -155 1 -155 19 0
14 10 21 37 28 60 14 64 30 61 254 -3 218 -6 229 -65 229 -30 0 -34 3 -31 22
2 19 14 25 73 40 111 26 111 26 119 -32 7 -55 14 -60 41 -30 74 82 219 109
316 59z"/>
<path d="M911 2609 c-5 -13 -34 -86 -64 -161 l-55 -138 127 0 128 0 -59 158
c-33 86 -62 159 -64 161 -2 2 -8 -7 -13 -20z"/>
<path d="M3720 2223 c-94 -48 -130 -89 -130 -148 0 -110 138 -114 199 -5 15
28 24 64 28 115 7 90 6 91 -97 38z"/>
<path d="M730 1127 c0 -21 153 -27 727 -27 506 0 513 0 513 20 0 20 -7 20
-620 20 -513 0 -620 -2 -620 -13z"/>
<path d="M857 1063 c-4 -3 -7 -12 -7 -20 0 -11 100 -13 560 -13 553 0 560 0
560 20 0 20 -7 20 -553 20 -305 0 -557 -3 -560 -7z"/>
<path d="M940 835 l0 -135 40 0 40 0 0 135 0 135 -40 0 -40 0 0 -135z"/>
<path d="M1070 850 c0 -66 3 -120 6 -120 3 0 13 4 23 9 16 9 17 2 17 -97 -1
-80 3 -116 16 -142 16 -34 16 -26 17 218 l1 252 -40 0 -40 0 0 -120z"/>
<path d="M1200 691 l0 -280 26 -20 c55 -43 54 -47 54 279 l0 300 -40 0 -40 0
0 -279z"/>
<path d="M1325 958 c-3 -7 -4 -148 -3 -313 l3 -300 43 -3 42 -3 -2 313 -3 313
-38 3 c-24 2 -39 -1 -42 -10z"/>
<path d="M1450 655 l0 -315 40 0 40 0 0 315 0 315 -40 0 -40 0 0 -315z"/>
<path d="M1580 655 l0 -315 40 0 40 0 0 315 0 315 -40 0 -40 0 0 -315z"/>
<path d="M1710 655 l0 -315 40 0 40 0 0 315 0 315 -40 0 -40 0 0 -315z"/>
<path d="M2113 948 c3 -10 106 -13 472 -13 366 0 469 3 473 13 3 9 -96 12
-473 12 -377 0 -476 -3 -472 -12z"/>
<path d="M2110 900 c0 -7 165 -10 475 -10 310 0 475 3 475 10 0 7 -165 10
-475 10 -310 0 -475 -3 -475 -10z"/>
<path d="M2330 585 l0 -245 35 0 35 0 0 245 0 245 -35 0 -35 0 0 -245z"/>
<path d="M2430 586 l0 -246 35 0 35 0 -2 243 -3 242 -32 3 -33 3 0 -245z"/>
<path d="M2530 586 l0 -246 35 0 35 0 -2 243 -3 242 -32 3 -33 3 0 -245z"/>
<path d="M2626 822 c-3 -5 -6 -116 -5 -246 l0 -236 40 0 39 0 -2 243 -3 242
-32 3 c-17 2 -34 -1 -37 -6z"/>
<path d="M2727 823 c-4 -3 -7 -114 -7 -245 l0 -238 35 0 35 0 0 245 0 245 -28
0 c-16 0 -32 -3 -35 -7z"/>
<path d="M3130 335 l0 -195 50 0 50 0 0 195 0 195 -50 0 -50 0 0 -195z"/>
<path d="M3260 335 l0 -195 50 0 50 0 0 195 0 195 -50 0 -50 0 0 -195z"/>
<path d="M3390 335 l0 -195 50 0 50 0 0 195 0 195 -50 0 -50 0 0 -195z"/>
<path d="M3520 335 l0 -195 50 0 50 0 0 195 0 195 -50 0 -50 0 0 -195z"/>
<path d="M3650 345 c0 -102 -1 -188 -2 -192 -2 -5 18 -9 45 -11 l47 -3 0 195
0 196 -45 0 -45 0 0 -185z"/>
<path d="M3770 335 l0 -195 50 0 50 0 0 195 0 195 -50 0 -50 0 0 -195z"/>
<path d="M4005 370 c0 -82 4 -150 8 -150 4 0 21 7 37 15 l30 16 0 134 0 135
-37 0 -38 0 0 -150z"/>
</g>
</svg>
